<svg width="715" height="900" xmlns="http://www.w3.org/2000/svg" preserveAspectRatio="xMinYMin meet" fill="none">

 <g>
  <title>Layer 1</title>
  <rect fill="none" height="849" width="715" y="0" x="0" id="svgEditorBackground"/>
  <path id="svg_1" fill="#F0F1F3" d="M 205.009,259 C 50.6127,271.8 5.0138,403.667 0.513902,468 -9.08588,648.4 111.03497,793.53478 176.86697,834.36778 c 22.49,13.95 59.5794,59.10783 244.56573,63.61299 v 0 C 593.42548,893.45073 612.185,788.498 664,761 c 8,-4.245 32,-4.5 50,8 L 716.5,0 H 602 C 602,0 573.501,24.5 569.001,68.9999 532.002,262 533.502,291 466.503,300.5 399.505,310 315.007,249.881 205.009,259 Z"/>
 </g>
</svg>